<?xml version="1.0" standalone="no"?>
<!DOCTYPE svg PUBLIC "-//W3C//DTD SVG 20010904//EN"
 "http://www.w3.org/TR/2001/REC-SVG-20010904/DTD/svg10.dtd">
<svg version="1.0" xmlns="http://www.w3.org/2000/svg"
 width="512.000000pt" height="512.000000pt" viewBox="0 0 512.000000 512.000000"
 preserveAspectRatio="xMidYMid meet">
<metadata>
Created by potrace 1.14, written by Peter Selinger 2001-2017
</metadata>
<g transform="translate(0.000000,512.000000) scale(0.100000,-0.100000)"
fill="#000000" stroke="none">
<path d="M0 2560 l0 -2560 1076 0 1076 0 -6 26 c-9 36 -36 74 -52 74 -7 0 -18
9 -24 19 -5 11 -20 21 -32 23 -12 2 -23 9 -26 17 -5 16 42 10 121 -15 71 -24
607 -15 687 10 30 10 92 20 138 23 l82 5 -1 -43 c-1 -58 -9 -82 -36 -113 l-23
-26 1070 0 1070 0 0 2560 0 2560 -2560 0 -2560 0 0 -2560z m3171 1436 c158 -9
305 -64 344 -128 26 -44 56 -125 62 -168 3 -20 18 -48 35 -66 37 -39 85 -157
97 -237 17 -111 22 -205 12 -212 -6 -3 -8 -24 -5 -49 4 -27 2 -46 -5 -50 -6
-4 -11 -16 -11 -26 0 -29 -37 -34 -174 -24 -169 12 -378 7 -460 -10 -69 -15
-102 -36 -126 -81 -11 -21 -11 -27 3 -43 16 -17 16 -21 1 -50 -8 -18 -24 -36
-34 -42 -10 -5 -20 -20 -24 -34 -3 -13 -17 -31 -30 -40 -24 -15 -28 -26 -40
-117 -5 -45 11 -54 116 -69 38 -6 79 -17 91 -25 12 -9 44 -15 73 -15 48 0 52
-2 59 -27 9 -36 20 -43 78 -43 35 0 53 6 68 21 17 17 41 23 122 30 105 10 290
3 317 -12 11 -6 15 -26 15 -78 0 -68 1 -71 36 -103 l36 -33 -2 -185 c-2 -181
-8 -243 -27 -267 -5 -7 -8 -22 -7 -35 4 -37 -11 -71 -47 -104 l-33 -31 21 -21
c25 -25 27 -58 5 -133 -11 -38 -24 -59 -40 -68 -21 -11 -25 -23 -31 -83 -8
-86 -31 -124 -82 -134 l-36 -7 4 -60 c3 -59 2 -62 -28 -82 -27 -17 -72 -89
-67 -105 4 -13 -223 -230 -241 -230 -7 0 -39 -23 -70 -50 -60 -53 -94 -73
-138 -84 -14 -3 -40 -24 -58 -46 -38 -48 -117 -94 -188 -109 -74 -15 -238 -14
-297 3 -28 8 -92 29 -143 46 -80 27 -97 37 -113 65 -13 22 -30 35 -50 39 -17
3 -53 24 -79 46 -31 26 -58 40 -76 40 -35 0 -96 21 -119 40 -10 8 -29 32 -44
54 -14 21 -34 50 -43 65 -10 14 -18 38 -18 53 0 15 -4 29 -10 33 -5 3 -6 13
-3 22 6 15 -48 73 -68 73 -5 0 -9 6 -9 14 0 8 -5 16 -10 18 -6 2 -13 18 -15
36 -2 18 -11 42 -20 54 -8 13 -15 29 -15 38 0 8 -12 22 -26 30 -28 16 -66 102
-69 158 -2 30 -8 38 -52 67 -8 5 -10 125 -3 125 25 0 -9 83 -41 100 -10 6 -19
17 -19 26 0 8 -7 25 -15 37 -12 19 -12 30 2 86 14 56 15 73 3 125 -7 34 -15
72 -17 86 -10 49 -11 156 -2 230 5 50 5 76 -2 81 -16 10 -17 175 -1 191 27 27
149 37 261 22 62 -8 190 -14 312 -14 186 0 211 2 241 19 18 10 60 22 93 25 61
7 115 23 115 35 0 3 -11 37 -24 74 -15 44 -36 81 -59 105 -22 23 -41 55 -48
84 -12 44 -12 49 6 62 20 14 20 15 0 48 -10 18 -28 41 -40 50 -49 41 -308 57
-550 34 -94 -8 -187 -13 -207 -10 -36 6 -38 9 -49 63 -7 31 -12 102 -11 159 2
128 19 158 91 167 184 21 208 31 251 106 20 34 39 51 86 74 85 42 94 51 94 99
1 22 7 52 15 66 8 14 14 48 15 77 0 32 6 57 15 66 28 29 122 39 440 47 176 4
327 10 336 14 19 8 231 23 279 19 19 -1 74 -4 121 -7z m453 -1097 c3 -17 6
-49 6 -70 l0 -39 -54 0 c-30 0 -58 5 -61 11 -4 5 -4 37 0 70 l7 59 48 0 c45 0
48 -1 54 -31z"/>
<path d="M2240 2017 c-51 -9 -67 -17 -75 -34 -5 -12 -19 -26 -32 -32 -28 -13
-30 -42 -3 -66 11 -10 20 -26 20 -35 0 -9 6 -24 13 -33 14 -19 17 -19 422 -14
320 4 362 10 386 53 10 20 7 29 -25 78 -20 30 -45 57 -55 61 -10 3 -119 10
-242 16 -123 6 -251 12 -284 14 -33 2 -89 -2 -125 -8z"/>
<path d="M2375 1441 c-111 -6 -125 -9 -195 -43 -41 -20 -95 -39 -120 -43 -25
-3 -66 -13 -92 -21 -44 -14 -48 -18 -48 -48 0 -31 3 -34 38 -40 20 -3 75 -6
122 -6 123 0 128 -3 132 -58 3 -44 5 -46 43 -58 114 -34 588 -59 636 -34 13 7
19 21 19 44 0 32 2 34 43 40 23 3 83 8 132 12 50 4 98 11 108 16 15 8 16 11 2
37 -14 27 -68 61 -97 61 -8 0 -43 18 -77 40 -115 74 -139 83 -246 91 -203 14
-283 16 -400 10z"/>
</g>
</svg>
